<?xml version="1.0" standalone="no"?>
<!DOCTYPE svg PUBLIC "-//W3C//DTD SVG 20010904//EN"
 "http://www.w3.org/TR/2001/REC-SVG-20010904/DTD/svg10.dtd">
<svg version="1.0" xmlns="http://www.w3.org/2000/svg"
 width="260.000000pt" height="260.000000pt" viewBox="0 0 260.000000 260.000000"
 preserveAspectRatio="xMidYMid meet">
<metadata>
Created by potrace 1.14, written by Peter Selinger 2001-2017
</metadata>
<g transform="translate(0.000000,260.000000) scale(0.100000,-0.100000)"
fill="#000000" stroke="none">
<path d="M0 1300 l0 -1300 1300 0 1300 0 0 1300 0 1300 -1300 0 -1300 0 0
-1300z m1378 394 c42 -17 97 -67 118 -106 14 -26 13 -27 -52 -62 -35 -20 -67
-36 -70 -36 -3 0 -19 14 -34 30 -30 32 -79 41 -97 18 -38 -49 -10 -85 113
-145 161 -80 198 -123 198 -233 0 -146 -107 -249 -258 -250 -88 0 -136 15
-186 57 -35 31 -99 120 -89 126 2 1 35 17 72 35 l69 33 42 -46 c38 -40 47 -45
87 -45 50 0 61 6 78 37 30 58 1 96 -127 161 -54 28 -110 62 -125 76 -102 95
-59 285 78 347 49 23 133 24 183 3z"/>
</g>
</svg>
